# Made in Blockbench 5.1.6
mtllib emitter.mtl

o 立方体
v 0.2767857143 0.4107142857 0.4375
v 0.2767857143 0.4107142857 0.125
v 0.4107142857 0.2767857143 0.125
v 0.4107142857 0.2767857143 0.4375
v 0.5892857143 0.2767857143 0.4375
v 0.5892857143 0.2767857143 0.125
v 0.7232142857 0.4107142857 0.125
v 0.7232142857 0.4107142857 0.4375
v 0.7232142857 0.5892857143 0.4375
v 0.7232142857 0.5892857143 0.125
v 0.5892857143 0.7232142857 0.125
v 0.5892857143 0.7232142857 0.4375
v 0.4107142857 0.7232142857 0.4375
v 0.4107142857 0.7232142857 0.125
v 0.2767857143 0.5892857143 0.125
v 0.2767857143 0.5892857143 0.4375
v 0.3660714286 0.1875 0.625
v 0.6339285714 0.1875 0.625
v 0.5 0.5 0.625
v 0.1875 0.3660714286 0.625
v 0.1875 0.3660714286 0.4375
v 0.3660714286 0.1875 0.4375
v 0.6339285714 0.1875 0.4375
v 0.8125 0.3660714286 0.4375
v 0.8125 0.3660714286 0.625
v 0.8125 0.6339285714 0.625
v 0.8125 0.6339285714 0.4375
v 0.6339285714 0.8125 0.4375
v 0.6339285714 0.8125 0.625
v 0.3660714286 0.8125 0.625
v 0.3660714286 0.8125 0.4375
v 0.1875 0.6339285714 0.4375
v 0.1875 0.6339285714 0.625
v 0.5 0.5 0.4375
v 0.3214285714 0.6785714286 0.875
v 0.3214285714 0.6785714286 0.625
v 0.3214285714 0.5892857143 0.625
v 0.3214285714 0.5892857143 0.875
v 0.4107142857 0.5892857143 0.625
v 0.4107142857 0.5892857143 0.875
v 0.4107142857 0.6785714286 0.625
v 0.4107142857 0.6785714286 0.875
v 0.3214285714 0.3214285714 0.875
v 0.4107142857 0.3214285714 0.875
v 0.4107142857 0.4107142857 0.875
v 0.3214285714 0.4107142857 0.875
v 0.4107142857 0.4107142857 0.625
v 0.3214285714 0.4107142857 0.625
v 0.4107142857 0.3214285714 0.625
v 0.3214285714 0.3214285714 0.625
v 0.5892857143 0.4107142857 0.875
v 0.5892857143 0.4107142857 0.625
v 0.5892857143 0.3214285714 0.625
v 0.5892857143 0.3214285714 0.875
v 0.6785714286 0.3214285714 0.625
v 0.6785714286 0.3214285714 0.875
v 0.6785714286 0.4107142857 0.625
v 0.6785714286 0.4107142857 0.875
v 0.5892857143 0.5892857143 0.875
v 0.6785714286 0.5892857143 0.875
v 0.6785714286 0.6785714286 0.875
v 0.5892857143 0.6785714286 0.875
v 0.6785714286 0.6785714286 0.625
v 0.5892857143 0.6785714286 0.625
v 0.6785714286 0.5892857143 0.625
v 0.5892857143 0.5892857143 0.625
v 0.5 0.5 0.125
vt 0.21875 0.5
vt 0.21875 0.65625
vt 0.09375 0.65625
vt 0.09375 0.5
vt 0.21875 0.5
vt 0.21875 0.65625
vt 0.09375 0.65625
vt 0.09375 0.5
vt 0.21875 0.5
vt 0.21875 0.65625
vt 0.09375 0.65625
vt 0.09375 0.5
vt 0.21875 0.5
vt 0.21875 0.65625
vt 0.09375 0.65625
vt 0.09375 0.5
vt 0.46875 0.5625
vt 0.65625 0.5625
vt 0.5625 0.78125
vt 0.21875 0.5
vt 0.21875 0.65625
vt 0.09375 0.65625
vt 0.09375 0.5
vt 0.21875 0.5
vt 0.21875 0.65625
vt 0.09375 0.65625
vt 0.09375 0.5
vt 0.21875 0.5
vt 0.21875 0.65625
vt 0.09375 0.65625
vt 0.09375 0.5
vt 0.21875 0.5
vt 0.21875 0.65625
vt 0.09375 0.65625
vt 0.09375 0.5
vt 0.84375 0.4375
vt 0.84375 0.53125
vt 0.6875 0.53125
vt 0.6875 0.4375
vt 0.84375 0.4375
vt 0.84375 0.53125
vt 0.6875 0.53125
vt 0.6875 0.4375
vt 0.84375 0.4375
vt 0.84375 0.53125
vt 0.6875 0.53125
vt 0.6875 0.4375
vt 0.84375 0.4375
vt 0.84375 0.53125
vt 0.6875 0.53125
vt 0.6875 0.4375
vt 0.78125 0.875
vt 0.65625 1
vt 0.5625 0.78125
vt 0.65625 0.4375
vt 0.65625 0.53125
vt 0.46875 0.53125
vt 0.46875 0.4375
vt 0.65625 0.4375
vt 0.65625 0.53125
vt 0.46875 0.53125
vt 0.46875 0.4375
vt 0.65625 0.4375
vt 0.65625 0.53125
vt 0.46875 0.53125
vt 0.46875 0.4375
vt 0.65625 0.4375
vt 0.65625 0.53125
vt 0.46875 0.53125
vt 0.46875 0.4375
vt 0.0625 0.5
vt 0.0625 0.625
vt 0 0.625
vt 0 0.5
vt 0.0625 0.5
vt 0.0625 0.625
vt 0 0.625
vt 0 0.5
vt 0.0625 0.5
vt 0.0625 0.625
vt 0 0.625
vt 0 0.5
vt 0.0625 0.5
vt 0.0625 0.625
vt 0 0.625
vt 0 0.5
vt 0.0625 0.46875
vt 0.0625 0.40625
vt 0 0.40625
vt 0 0.46875
vt 0.0625 0.46875
vt 0.0625 0.40625
vt 0 0.40625
vt 0 0.46875
vt 0.0625 0.5
vt 0.0625 0.625
vt 0 0.625
vt 0 0.5
vt 0.0625 0.5
vt 0.0625 0.625
vt 0 0.625
vt 0 0.5
vt 0.0625 0.5
vt 0.0625 0.625
vt 0 0.625
vt 0 0.5
vt 0.0625 0.5
vt 0.0625 0.625
vt 0 0.625
vt 0 0.5
vt 0.0625 0.5
vt 0.0625 0.625
vt 0 0.625
vt 0 0.5
vt 0.0625 0.5
vt 0.0625 0.625
vt 0 0.625
vt 0 0.5
vt 0.0625 0.5
vt 0.0625 0.625
vt 0 0.625
vt 0 0.5
vt 0.0625 0.5
vt 0.0625 0.625
vt 0 0.625
vt 0 0.5
vt 0.0625 0.46875
vt 0.0625 0.40625
vt 0 0.40625
vt 0 0.46875
vt 0.0625 0.46875
vt 0.0625 0.40625
vt 0 0.40625
vt 0 0.46875
vt 0.0625 0.5
vt 0.0625 0.625
vt 0 0.625
vt 0 0.5
vt 0.0625 0.5
vt 0.0625 0.625
vt 0 0.625
vt 0 0.5
vt 0.0625 0.5
vt 0.0625 0.625
vt 0 0.625
vt 0 0.5
vt 0.0625 0.5
vt 0.0625 0.625
vt 0 0.625
vt 0 0.5
vt 0.3125 0.90625
vt 0.21875 1
vt 0.15625 0.84375
vt 0.21875 1
vt 0.09375 1
vt 0.15625 0.84375
vt 0.09375 1
vt 0 0.90625
vt 0.15625 0.84375
vt 0 0.90625
vt 0 0.78125
vt 0.15625 0.84375
vt 0 0.78125
vt 0.09375 0.6875
vt 0.15625 0.84375
vt 0.09375 0.6875
vt 0.21875 0.6875
vt 0.15625 0.84375
vt 0.21875 0.6875
vt 0.3125 0.78125
vt 0.15625 0.84375
vt 0.3125 0.78125
vt 0.3125 0.90625
vt 0.15625 0.84375
vt 0.65625 0.5625
vt 0.78125 0.6875
vt 0.5625 0.78125
vt 0.78125 0.6875
vt 0.78125 0.875
vt 0.5625 0.78125
vt 0.78125 0.875
vt 0.65625 1
vt 0.5625 0.78125
vt 0.65625 1
vt 0.46875 1
vt 0.5625 0.78125
vt 0.46875 1
vt 0.34375 0.875
vt 0.5625 0.78125
vt 0.34375 0.875
vt 0.34375 0.6875
vt 0.5625 0.78125
vt 0.34375 0.6875
vt 0.46875 0.5625
vt 0.5625 0.78125
vt 0.65625 1
vt 0.46875 1
vt 0.5625 0.78125
vt 0.46875 1
vt 0.34375 0.875
vt 0.5625 0.78125
vt 0.34375 0.875
vt 0.34375 0.6875
vt 0.5625 0.78125
vt 0.34375 0.6875
vt 0.46875 0.5625
vt 0.5625 0.78125
vt 0.46875 0.5625
vt 0.65625 0.5625
vt 0.5625 0.78125
vt 0.65625 0.5625
vt 0.78125 0.6875
vt 0.5625 0.78125
vt 0.78125 0.6875
vt 0.78125 0.875
vt 0.5625 0.78125
vn -0.7071067812 -0.7071067812 -0
vn 0.7071067812 -0.7071067812 -0
vn 0.7071067812 0.7071067812 -0
vn -0.7071067812 0.7071067812 -0
vn 0 0 1
vn 0 -1 -0
vn 0 1 -0
vn -1 0 -0
vn 1 0 -0
vn -0.7071067812 -0.7071067812 -0
vn 0.7071067812 -0.7071067812 -0
vn 0.7071067812 0.7071067812 -0
vn -0.7071067812 0.7071067812 -0
vn 0 0 -1
vn 0 -1 -0
vn 0 1 -0
vn -1 0 -0
vn 1 0 -0
vn -1 0 -0
vn 0 -1 -0
vn 1 0 -0
vn 0 1 -0
vn 0 0 1
vn 0 0 1
vn 0 1 -0
vn 1 0 -0
vn 0 -1 -0
vn -1 0 -0
vn -1 0 -0
vn 0 -1 -0
vn 1 0 -0
vn 0 1 -0
vn 0 0 1
vn 0 0 1
vn 0 1 -0
vn 1 0 -0
vn 0 -1 -0
vn -1 0 -0
vn 0 0 -1
vn 0 0 -1
vn 0 0 -1
vn 0 0 -1
vn 0 0 -1
vn 0 0 -1
vn 0 0 -1
vn 0 0 -1
vn 0 0 1
vn 0 0 1
vn 0 0 1
vn 0 0 1
vn 0 0 1
vn 0 0 1
vn 0 0 1
vn 0 0 -1
vn 0 0 -1
vn 0 0 -1
vn 0 0 -1
vn 0 0 -1
vn 0 0 -1
vn 0 0 -1
usemtl lv
f 1/1/1 2/2/1 3/3/1 4/4/1
f 5/5/2 6/6/2 7/7/2 8/8/2
f 9/9/3 10/10/3 11/11/3 12/12/3
f 13/13/4 14/14/4 15/15/4 16/16/4
f 17/17/5 18/18/5 19/19/5
f 4/20/6 3/21/6 6/22/6 5/23/6
f 12/24/7 11/25/7 14/26/7 13/27/7
f 16/28/8 15/29/8 2/30/8 1/31/8
f 8/32/9 7/33/9 10/34/9 9/35/9
f 20/36/10 21/37/10 22/38/10 17/39/10
f 18/40/11 23/41/11 24/42/11 25/43/11
f 26/44/12 27/45/12 28/46/12 29/47/12
f 30/48/13 31/49/13 32/50/13 33/51/13
f 24/52/14 23/53/14 34/54/14
f 17/55/15 22/56/15 23/57/15 18/58/15
f 29/59/16 28/60/16 31/61/16 30/62/16
f 33/63/17 32/64/17 21/65/17 20/66/17
f 25/67/18 24/68/18 27/69/18 26/70/18
f 35/71/19 36/72/19 37/73/19 38/74/19
f 38/75/20 37/76/20 39/77/20 40/78/20
f 40/79/21 39/80/21 41/81/21 42/82/21
f 42/83/22 41/84/22 36/85/22 35/86/22
f 38/87/23 40/88/23 42/89/23 35/90/23
f 43/91/24 44/92/24 45/93/24 46/94/24
f 45/95/25 47/96/25 48/97/25 46/98/25
f 44/99/26 49/100/26 47/101/26 45/102/26
f 43/103/27 50/104/27 49/105/27 44/106/27
f 46/107/28 48/108/28 50/109/28 43/110/28
f 51/111/29 52/112/29 53/113/29 54/114/29
f 54/115/30 53/116/30 55/117/30 56/118/30
f 56/119/31 55/120/31 57/121/31 58/122/31
f 58/123/32 57/124/32 52/125/32 51/126/32
f 54/127/33 56/128/33 58/129/33 51/130/33
f 59/131/34 60/132/34 61/133/34 62/134/34
f 61/135/35 63/136/35 64/137/35 62/138/35
f 60/139/36 65/140/36 63/141/36 61/142/36
f 59/143/37 66/144/37 65/145/37 60/146/37
f 62/147/38 64/148/38 66/149/38 59/150/38
f 7/151/39 6/152/39 67/153/39
f 6/154/40 3/155/40 67/156/40
f 3/157/41 2/158/41 67/159/41
f 2/160/42 15/161/42 67/162/42
f 15/163/43 14/164/43 67/165/43
f 14/166/44 11/167/44 67/168/44
f 11/169/45 10/170/45 67/171/45
f 10/172/46 7/173/46 67/174/46
f 18/175/47 25/176/47 19/177/47
f 25/178/48 26/179/48 19/180/48
f 26/181/49 29/182/49 19/183/49
f 29/184/50 30/185/50 19/186/50
f 30/187/51 33/188/51 19/189/51
f 33/190/52 20/191/52 19/192/52
f 20/193/53 17/194/53 19/195/53
f 23/196/54 22/197/54 34/198/54
f 22/199/55 21/200/55 34/201/55
f 21/202/56 32/203/56 34/204/56
f 32/205/57 31/206/57 34/207/57
f 31/208/58 28/209/58 34/210/58
f 28/211/59 27/212/59 34/213/59
f 27/214/60 24/215/60 34/216/60